PathFileType	4	(X/Y/Z)	pose_F01_0-96.trc
DataRate	CameraRate	NumFrames	NumMarkers	Units	OrigDataRate	OrigDataStartFrame	OrigNumFrames
30	30	6	21	m	30	60	96
Frame#	Time	CHip			RHip			RKnee			RAnkle			RBigToe			RSmallToe			RHeel			LHip			LKnee			LAnkle			LBigToe			LSmallToe			LHeel			Neck			Nose			RShoulder			RElbow			RWrist			LShoulder			LElbow			LWrist			
		X1	Y1	Z1	X2	Y2	Z2	X3	Y3	Z3	X4	Y4	Z4	X5	Y5	Z5	X6	Y6	Z6	X7	Y7	Z7	X8	Y8	Z8	X9	Y9	Z9	X10	Y10	Z10	X11	Y11	Z11	X12	Y12	Z12	X13	Y13	Z13	X14	Y14	Z14	X15	Y15	Z15	X16	Y16	Z16	X17	Y17	Z17	X18	Y18	Z18	X19	Y19	Z19	X20	Y20	Z20	X21	Y21	Z21	
60	2.0	-0.15128685643181172	1.7437429051774445	-0.49673617101183076	-0.15884100908666	1.7438676764674574	-0.4386563166205981	-0.2208068408391104	1.6653675694216903	-0.4595296427692402	-0.1666877532271284	1.5762351216556565	-0.4414440356013453							-0.15552377074342255	1.575997499448009	-0.4362998087972619	-0.1435964838898436	1.742679760306332	-0.557800190141206	-0.2022169657841053	1.6596948884671345	-0.5764022702606411	-0.14671714754622395	1.5732799460178375	-0.5375835478646735	-0.1824214975133864	1.5420274724752023	-0.5662337974852549	-0.17346124069018806	1.5465549613943532	-0.5713169189677941	-0.1319636713288287	1.5679213697505514	-0.5307784657665029	-0.18634840204028155	1.8616399587076027	-0.5296162120219987	-0.2314368702443945	1.9148066553395386	-0.5553364548805875	-0.20124385639567555	1.8598601018273113	-0.45086401511177	-0.21055057773527758	1.7823886218483735	-0.4159111082993419	-0.21865117263938838	1.727243003709749	-0.3923292253581884	-0.1691017222730066	1.8622564387623628	-0.6164983662923055	-0.1446728444693838	1.7767516537016896	-0.6342794413116143	-0.1623513517325551	1.6932374703311528	-0.6345834334580981
61	2.033333333333333	-0.15044883552061947	1.7416403097356976	-0.49296686955707025	-0.15912246245694978	1.7409641886541367	-0.4378643889668484	-0.22173912529250253	1.6642586867281217	-0.46280235311553847	-0.1666877532271284	1.5762351216556565	-0.4414440356013453							-0.15329332960563058	1.5745223332048683	-0.4293970810761847	-0.14302409977645492	1.7392879613650092	-0.5537628275078365	-0.20237479905271355	1.6609644949465576	-0.5763578886953015	-0.1458559085796496	1.5733390947930332	-0.5343716473003325	-0.1826543651800562	1.5435107125621452	-0.5659441379863602	-0.17136199213886424	1.546674146977485	-0.5734789063817474	-0.13065795517566509	1.568211976198477	-0.5281821719990983	-0.18743609671078817	1.8527539699290168	-0.5315990082068165	-0.23493828907327705	1.9064394566243996	-0.5548807775605737	-0.204293966392585	1.8510902923989427	-0.45084603183006133	-0.20952195054524655	1.7728854465381707	-0.4115947082453661	-0.22110851741546608	1.7151535819294699	-0.39016452568073917	-0.16941566206732583	1.854827774154184	-0.6156521073475536	-0.14489676195758192	1.772929182307681	-0.633635333380769	-0.16349776336418037	1.6964125244311719	-0.6336484360278595
62	2.066666666666667	-0.14850577759614486	1.735743378593809	-0.485528772817038	-0.1579847780740794	1.7370076578040154	-0.4340133010645729	-0.22159758237088414	1.663057757057446	-0.4630278285191176	-0.1666877532271284	1.5762351216556565	-0.4414440356013453							-0.1541597041429071	1.5728699227569782	-0.42810970963199046	-0.13837643267528318	1.7369778703726122	-0.5455933081479138	-0.20242300006052966	1.6578460293604766	-0.5759914664890061	-0.14739256415114566	1.575851335942928	-0.5331923528541934	-0.18146475031674322	1.5450056536917087	-0.5634853452575171	-0.16894563941396426	1.5482166387293523	-0.5762546726252527	-0.13370984925494422	1.5729973401944548	-0.5209933068336268	-0.1898841954748874	1.8480889609396185	-0.5285751177266966	-0.2368596111489982	1.8977964297214474	-0.5515226733941241	-0.20762446309430346	1.846160232337947	-0.45111930012104984	-0.2101932606604858	1.7664660498410865	-0.41016912133886824	-0.22356586219154376	1.703064160149191	-0.3879998260032899	-0.17197101087924227	1.8497422908490981	-0.61255706618632	-0.14563517613597937	1.7617951503527212	-0.6354360291649396	-0.16566325688646186	1.6821401882764915	-0.6296865895258089
63	2.1	-0.1477271163253898	1.729330034676815	-0.48997923006765093	-0.1577747440912566	1.7294795284270177	-0.4333900051419659	-0.22333143336058292	1.6614670127397029	-0.4608391672054886	-0.1666877532271284	1.5762351216556565	-0.4414440356013453							-0.15502607868018364	1.5712175123090881	-0.4268223381877962	-0.14113093287270553	1.729208050521071	-0.5545339620335715	-0.20117527204239155	1.6587112202826442	-0.5732345714885569	-0.14824338452213476	1.5756217676384128	-0.5363873749787348	-0.18242065830886553	1.5450222402420761	-0.5665859851325391	-0.17113017458433566	1.5481838112287611	-0.5740689820585844	-0.13450411579774937	1.5693326922247082	-0.5243198934454314	-0.190041859092829	1.8443830255443054	-0.527972415087446	-0.23645484758271082	1.8930193159096371	-0.5480836662237673	-0.20689158026334326	1.8426709121823854	-0.4471741577482056	-0.21128411133317465	1.7616162589959063	-0.4127547016286767	-0.22602320696762146	1.6909747383689118	-0.3858351263258406	-0.1702417166951308	1.8450235128120485	-0.6140689433079747	-0.14244188650814085	1.753575153585697	-0.6380313998030579	-0.16571230003030205	1.6791486835207405	-0.6293012004616458
64	2.1333333333333333	-0.1474622090823828	1.731464100423785	-0.4862031323177299	-0.15826564985416652	1.7308408009878857	-0.4328770048701361	-0.2226167789889805	1.6634776917030865	-0.4574598679531954	-0.1666877532271284	1.5762351216556565	-0.4414440356013453							-0.15507966100110063	1.5714334262466365	-0.42684200681986617	-0.13911944869067736	1.7315010011875198	-0.5441508577763264	-0.20267390035925573	1.6607314106650846	-0.5673593204020169	-0.1457413052327552	1.5720496915264963	-0.5345171556805681	-0.18265927807565602	1.5436936381677748	-0.5660110763161253	-0.17132585717575596	1.5467019984252688	-0.573540010360945	-0.13271864727623334	1.5651533682392866	-0.525517781589641	-0.18931251952247302	1.8429135092612952	-0.5246316684341151	-0.2365633972601272	1.8921588751330234	-0.5479638480960766	-0.2059624393949633	1.8409358139726724	-0.4436361979116383	-0.21076566213293624	1.7602474042337446	-0.4090003674006024	-0.22848055174369913	1.6788853165886328	-0.38367042664839135	-0.1723180687828694	1.8449912215405835	-0.6117929484666249	-0.14391196771621034	1.7571731107924402	-0.6366824246802457	-0.16570197830998004	1.6791546879059855	-0.6292299969105842
65	2.1666666666666665	-0.14786311771378904	1.736553995658218	-0.4907961549600598	-0.1572241436081017	1.7361233502374451	-0.4392833602641411	-0.22178036637333434	1.665170293967955	-0.4626610884733492	-0.1666877532271284	1.5762351216556565	-0.4414440356013453							-0.15513324332201764	1.571649340184185	-0.4268616754519361	-0.13763365533329452	1.73766721541081	-0.5509371003434168	-0.19956634589337396	1.6643498994338966	-0.5666720115393556	-0.14854001300967232	1.5745049941663416	-0.5359101109245852	-0.18248872018958853	1.5452173446993844	-0.5667065240717043	-0.17133321801341175	1.5467363315055256	-0.5736161582211049	-0.13535322449550768	1.5661333474205241	-0.5273407055378357	-0.18729889629808427	1.8464963004083212	-0.5272828459658211	-0.23651992152565635	1.9001567028816602	-0.5490329447779972	-0.20303137463872548	1.8444629813477467	-0.44314428158112534	-0.2065674314823066	1.7684163442969785	-0.4055685207754795	-0.22540774616938855	1.6879898127853092	-0.388091281256043	-0.1694489002342981	1.8489325456205046	-0.6113950768526032	-0.14324177606698757	1.7652542227638264	-0.6343673181997294	-0.1639309854964933	1.6857546958496512	-0.6234940967361982
